<svg id="Layer_1" data-name="Layer 1" xmlns="http://www.w3.org/2000/svg" viewBox="0 0 525.05 115.99"><defs><style>.cls-1{fill:#031a3f;}.cls-2{fill:#052460;}.cls-3{fill:#c7e8e8;}.cls-4{fill:#fff;}</style></defs><path class="cls-1" d="M514.24,638.17a3.3,3.3,0,0,1,3.3-3.3h28.51c22,0,31.8,12,31.8,28.47s-9.77,28.59-31.8,28.59h-8.46a3.3,3.3,0,0,0-3.3,3.3v17.29a3.3,3.3,0,0,1-3.3,3.3H517.54a3.3,3.3,0,0,1-3.3-3.3Zm32.18,35.2c8.54,0,11.14-4.21,11.14-10s-2.6-9.9-11.14-9.9h-8.83a3.3,3.3,0,0,0-3.3,3.3v13.33a3.3,3.3,0,0,0,3.3,3.3Z" transform="translate(-299.34 -609.12)"/><path class="cls-1" d="M607.83,634.87H619.4a4.24,4.24,0,0,1,4.24,4.24v22.1a4.24,4.24,0,0,0,4.24,4.24h21.84a4.24,4.24,0,0,0,4.25-4.24v-22.1a4.24,4.24,0,0,1,4.24-4.24h11.57a4.24,4.24,0,0,1,4.24,4.24v72.47a4.24,4.24,0,0,1-4.24,4.24H658.21a4.24,4.24,0,0,1-4.24-4.24V688.25a4.24,4.24,0,0,0-4.25-4.24H627.88a4.24,4.24,0,0,0-4.24,4.24v23.33a4.24,4.24,0,0,1-4.24,4.24H607.83a4.24,4.24,0,0,1-4.24-4.24V639.11A4.24,4.24,0,0,1,607.83,634.87Z" transform="translate(-299.34 -609.12)"/><path class="cls-1" d="M709.42,634.87h12.11a4,4,0,0,1,4,4v73a4,4,0,0,1-4,4H709.42a4,4,0,0,1-4-4v-73A4,4,0,0,1,709.42,634.87Z" transform="translate(-299.34 -609.12)"/><path class="cls-1" d="M755.07,667.3c0-20.92,12.38-34,34.66-34s34.66,13.11,34.66,34V713a2.82,2.82,0,0,1-2.82,2.82H807a2.63,2.63,0,0,1-2.63-2.63V666.8a14.83,14.83,0,0,0-14.51-15c-10,0-14.71,5.54-14.71,15.47V713a2.79,2.79,0,0,1-2.79,2.79H757.88a2.81,2.81,0,0,1-2.81-2.81Z" transform="translate(-299.34 -609.12)"/><path class="cls-1" d="M310.17,610.44c4.54,9.73,22.79,38.63,54.25,47.07,0,0-44.23,23.22-48.95,22.67-4.54-.54-27.41-45.41-9.18-70.14A2.27,2.27,0,0,1,310.17,610.44Z" transform="translate(-299.34 -609.12)"/><path class="cls-2" d="M314.62,706.1a4.81,4.81,0,0,1-3.22-3.38c-2.13-7.69-6-35.78,47.21-44.3,0,0,20.82-3.35,30.32-4.16,0,0,6.74-.25,11.72-7.74a10.82,10.82,0,0,1,3.15-3.17c1.33-.83,2.94-1.41,4.13-.41a2.73,2.73,0,0,1,.87,2.58c-.36,2-.4,6.77,7.81,4.4,9.52-2.76,25-7.6,48.72-4.91a.74.74,0,0,1,0,1.46c-20.28,2.34-82.71,11.7-56.13,36.38,0,0,8.55,6.49,16.89,6l-33.79,32.26s-8.33,3.15-20.95-1.35c0,0-20.69,8.91-33.53,3.66,0,0-7.7-4.29.86-7.71s6.5-6,5.89-8.64-17.94-13.32-23.22-11.45c0,0-3.87.7-3,6a4.51,4.51,0,0,1-.07,1.9C317.94,704.87,317,706.79,314.62,706.1Z" transform="translate(-299.34 -609.12)"/><path class="cls-3" d="M484.69,676.25c1.7-1.22,7.55-4.39,5.79-5.44-8.3-4.94-34.18-11.39-65.36,15,0,0-34,28.23-53.76,33.91,0,0,37.3,20.3,82.28-17.79C453.64,701.92,475.06,683.16,484.69,676.25Z" transform="translate(-299.34 -609.12)"/><ellipse class="cls-4" cx="319.93" cy="683.76" rx="3.12" ry="2.13" transform="translate(-723.78 -51.07) rotate(-55.34)"/><path class="cls-4" d="M365,714.52c-1,1.39-4.75,1.94-6,1.06a2.94,2.94,0,0,1-.55-4.1c1-1.38,3.65-2.15,5-1.38C365.34,711.19,366,713.13,365,714.52Z" transform="translate(-299.34 -609.12)"/><path class="cls-2" d="M341.86,710.33c-.89,1.54-6.77.62-12.56-2.72s-9.31-7.86-8.43-9.4,6.31-.07,12.11,3.27S342.75,708.79,341.86,710.33Z" transform="translate(-299.34 -609.12)"/><path class="cls-3" d="M343.61,690.24s3.92-23.55,50-27.12C393.57,663.12,355.86,676.15,343.61,690.24Z" transform="translate(-299.34 -609.12)"/></svg>